<svg width="57" height="57" viewBox="0 0 57 57" fill="none" xmlns="http://www.w3.org/2000/svg">
<path d="M44.2798 0H31.0496C28.1508 0 25.4254 1.12909 23.3754 3.1792L7.04903 19.5045C4.99971 21.5549 3.87117 24.2803 3.87117 27.1785V28.8715C3.87117 28.878 3.87073 28.8843 3.87073 28.8908C3.87073 28.894 3.87117 28.8972 3.87117 28.9004V48.1505C3.87117 53.0302 7.84102 57 12.7206 57H15.3402C15.8013 57 16.1752 56.6262 16.1752 56.165C16.1752 55.7039 15.8013 55.3301 15.3402 55.3301H12.7206C8.76182 55.3301 5.54109 52.1094 5.54109 48.1505V28.8715C5.55156 26.1088 7.80195 23.8644 10.567 23.8644H18.8854C23.765 23.8644 27.7346 19.8947 27.7346 15.0152V6.69672C27.7346 3.92521 29.9894 1.67037 32.7609 1.67037C32.7642 1.67037 32.7674 1.66992 32.7706 1.66992H44.2799C48.2388 1.66992 51.4595 4.89064 51.4595 8.84947V12.6731H46.6546L42.9581 8.97772C42.9831 8.79748 42.997 8.61379 42.997 8.42676C42.997 6.2218 41.2031 4.42785 38.9981 4.42785C36.7931 4.42785 34.9992 6.2218 34.9992 8.42676C34.9992 10.6317 36.7931 12.4257 38.9981 12.4257C39.185 12.4257 39.3687 12.4117 39.5488 12.3868L43.9511 16.7891C44.4061 17.2441 45.0113 17.4947 45.6551 17.4947H51.4595V18.6173H47.406C46.9449 18.6173 46.5711 18.9911 46.5711 19.4523C46.5711 19.9134 46.9449 20.2872 47.406 20.2872H51.4595V21.7683H41.4541C41.2327 21.7683 41.0203 21.8563 40.8637 22.0129L39.4234 23.4532C39.142 23.0423 38.7861 22.6864 38.3752 22.4051L40.2768 20.5035C40.4163 20.364 40.6024 20.2872 40.8008 20.2872H44.0661C44.5272 20.2872 44.901 19.9134 44.901 19.4523C44.901 18.9911 44.5272 18.6173 44.0661 18.6173H40.8008C40.1563 18.6173 39.5509 18.8678 39.0961 19.3228L36.6723 21.7465C36.4923 21.7216 36.3087 21.7078 36.122 21.7078C33.9171 21.7078 32.1231 23.5017 32.1231 25.7067C32.1231 27.9116 33.9171 29.7056 36.122 29.7056C38.327 29.7056 40.1209 27.9116 40.1209 25.7067C40.1209 25.5199 40.107 25.3363 40.0821 25.1561L41.8 23.4384H51.4595V24.5617H49.7405C49.0967 24.5617 48.4916 24.8123 48.0365 25.2673L43.6337 29.6701C43.4537 29.6451 43.2702 29.6313 43.0834 29.6313C40.8784 29.6313 39.0845 31.4253 39.0845 33.6302C39.0845 35.8352 40.8784 37.6291 43.0834 37.6291C45.2883 37.6291 47.0823 35.8352 47.0823 33.6302C47.0823 33.4431 47.0684 33.2592 47.0433 33.0787L50.7398 29.3832H51.4593V48.1505C51.4593 52.1094 48.2385 55.3301 44.2797 55.3301H18.6798C18.2187 55.3301 17.8449 55.7039 17.8449 56.165C17.8449 56.6262 18.2187 57 18.6798 57H44.2797C49.1593 57 53.1292 53.0302 53.1292 48.1505V8.84947C53.1293 3.96985 49.1595 0 44.2798 0ZM26.0645 15.0152C26.0645 18.9739 22.8439 22.1945 18.8853 22.1945H10.5669C8.88105 22.1945 7.34005 22.822 6.16153 23.8541C6.61675 22.6803 7.31322 21.6024 8.22989 20.6852L24.5562 4.36005C25.4733 3.44293 26.5511 2.74624 27.7247 2.2908C26.6923 3.46932 26.0645 5.01066 26.0645 6.69683V15.0152ZM36.122 28.0357C34.8379 28.0357 33.7931 26.9908 33.7931 25.7067C33.7931 24.4225 34.8379 23.3777 36.122 23.3777C37.4062 23.3777 38.451 24.4225 38.451 25.7067C38.451 26.9908 37.4062 28.0357 36.122 28.0357ZM36.6691 8.42676C36.6691 7.14259 37.7139 6.09778 38.9981 6.09778C40.2823 6.09778 41.3271 7.14259 41.3271 8.42676C41.3271 9.71093 40.2823 10.7557 38.9981 10.7557C37.7139 10.7557 36.6691 9.71104 36.6691 8.42676ZM45.655 15.8248C45.4572 15.8248 45.2714 15.7479 45.1318 15.6083L41.2516 11.7281C41.6623 11.4469 42.018 11.0912 42.2992 10.6805L45.7183 14.0987C45.8749 14.2552 46.0872 14.3432 46.3087 14.3432H51.4594V15.8248H45.655ZM43.0834 35.9592C41.7992 35.9592 40.7544 34.9144 40.7544 33.6302C40.7544 32.3461 41.7992 31.3012 43.0834 31.3012C44.3676 31.3012 45.4124 32.3461 45.4124 33.6302C45.4124 34.9144 44.3677 35.9592 43.0834 35.9592ZM50.3941 27.7132C50.1726 27.7132 49.9603 27.8012 49.8037 27.9577L46.3844 31.3762C46.1031 30.9656 45.7474 30.6099 45.3367 30.3287L49.2172 26.4481C49.3568 26.3085 49.5426 26.2316 49.7404 26.2316H51.4594V27.7132H50.3941Z" fill="#4D4D4D"/>
<path d="M11.1295 31.1362H27.4635C27.9246 31.1362 28.2984 30.7624 28.2984 30.3013C28.2984 29.8401 27.9246 29.4663 27.4635 29.4663H11.1295C10.6684 29.4663 10.2946 29.8401 10.2946 30.3013C10.2946 30.7624 10.6684 31.1362 11.1295 31.1362Z" fill="#4D4D4D"/>
<path d="M11.1295 35.5034H34.5459C35.0071 35.5034 35.3809 35.1296 35.3809 34.6685C35.3809 34.2073 35.0071 33.8335 34.5459 33.8335H11.1295C10.6684 33.8335 10.2946 34.2073 10.2946 34.6685C10.2946 35.1296 10.6684 35.5034 11.1295 35.5034Z" fill="#4D4D4D"/>
<path d="M11.1295 39.8706H34.5459C35.0071 39.8706 35.3809 39.4968 35.3809 39.0356C35.3809 38.5745 35.0071 38.2007 34.5459 38.2007H11.1295C10.6684 38.2007 10.2946 38.5745 10.2946 39.0356C10.2946 39.4968 10.6684 39.8706 11.1295 39.8706Z" fill="#4D4D4D"/>
<path d="M11.1295 44.2378H34.5459C35.0071 44.2378 35.3809 43.864 35.3809 43.4028C35.3809 42.9417 35.0071 42.5679 34.5459 42.5679H11.1295C10.6684 42.5679 10.2946 42.9417 10.2946 43.4028C10.2946 43.864 10.6684 44.2378 11.1295 44.2378Z" fill="#4D4D4D"/>
<path d="M36.1221 50.0156H44.6664C45.1275 50.0156 45.5014 49.6418 45.5014 49.1807C45.5014 48.7195 45.1275 48.3457 44.6664 48.3457H36.1221C35.6609 48.3457 35.2871 48.7195 35.2871 49.1807C35.2871 49.6418 35.6609 50.0156 36.1221 50.0156Z" fill="#4D4D4D"/>
</svg>
